<svg xmlns="http://www.w3.org/2000/svg" viewBox="0 0 145.66 300.36"><defs><style>.cls-1{fill:#ffd15e;}.cls-2{fill:#f7a69b;}.cls-3{fill:#f8a79b;}</style></defs><title>cat-open</title><g id="Layer_2" data-name="Layer 2"><g id="Layer_1-2" data-name="Layer 1"><path class="cls-1" d="M100.05,202.77s2-6.66,2.09-7a104,104,0,0,1,7.76-17.13c3.59-6.32,8.59-11.69,11.8-18.21,3.5-7.12,3.8-14.39,5.17-22a12.45,12.45,0,0,1,2.12-5.6,5.36,5.36,0,0,1,5.3-2.15c4.36,1.14,5.49,7,5.45,10.75-.13,13.15-8,27.23-15.41,37.74,0,0-10,14.08-10.79,24.77Z"/><path class="cls-1" d="M110.57,192.64l-8.1-49.72c25.44-10.2,43.19-33.1,43.19-59.73a60.13,60.13,0,0,0-10-33.1l1.84-45.81A4.11,4.11,0,0,0,131.15.66l-33,21.21A80.88,80.88,0,0,0,47.27,22L14.14.66A4.11,4.11,0,0,0,7.82,4.28L9.68,50.6l0,0A60.06,60.06,0,0,0,0,83.19C0,110,17.94,133,43.61,143.09l-6.68,49.45C21.38,196.4,9.68,213.06,9.68,233c0,21.9,14.07,39.81,31.87,41.23v9.49a16.63,16.63,0,0,0,9.42,15V281.31a1.6,1.6,0,0,1,3.2,0v18.08a1.84,1.84,0,0,1-.07.47,17,17,0,0,0,4.06.5h0a16,16,0,0,0,1.71-.09,1.75,1.75,0,0,1,0-.24V284.17a1.6,1.6,0,1,1,3.2,0v15.46a16.63,16.63,0,0,0,11.74-15.89,16.63,16.63,0,0,0,11.73,15.89V284.17a1.6,1.6,0,1,1,3.2,0V300a1.79,1.79,0,0,1,0,.24,16,16,0,0,0,1.7.09,17,17,0,0,0,4.07-.5,1.5,1.5,0,0,1-.08-.47V281.31a1.6,1.6,0,1,1,3.2,0v17.42a16.62,16.62,0,0,0,9.43-15V274c16.64-2.76,29.46-20,29.46-40.93C137.47,213.21,126,196.66,110.57,192.64Z"/><circle class="cls-2" cx="33.78" cy="80.87" r="6.79"/><circle class="cls-2" cx="112.01" cy="80.87" r="6.79"/><path class="cls-2" d="M62,101.18a18.82,18.82,0,0,1-8.62-2.36A1.6,1.6,0,0,1,54.81,96c3.79,2,7.21,2.48,10.17,1.54a11.12,11.12,0,0,0,6-5,1.61,1.61,0,0,1,2.16-.7A1.59,1.59,0,0,1,73.8,94a14.19,14.19,0,0,1-7.8,6.57A13.07,13.07,0,0,1,62,101.18Z"/><path class="cls-2" d="M83.31,101.18a13,13,0,0,1-4-.63A14.14,14.14,0,0,1,71.47,94a1.6,1.6,0,1,1,2.85-1.44,11.18,11.18,0,0,0,6,5c3,.94,6.38.42,10.16-1.54a1.6,1.6,0,1,1,1.48,2.84A18.82,18.82,0,0,1,83.31,101.18Z"/><path class="cls-3" d="M54.17,281.31a1.6,1.6,0,0,0-3.2,0v17.42a17.4,17.4,0,0,0,3.13,1.13,1.84,1.84,0,0,0,.07-.47Z"/><path class="cls-3" d="M61.44,282.56a1.61,1.61,0,0,0-1.6,1.61V300a1.75,1.75,0,0,0,0,.24,16.65,16.65,0,0,0,3.17-.64V284.17A1.6,1.6,0,0,0,61.44,282.56Z"/><path class="cls-3" d="M95.38,281.31a1.6,1.6,0,1,1,3.2,0v17.42a17.3,17.3,0,0,1-3.12,1.13,1.5,1.5,0,0,1-.08-.47Z"/><path class="cls-3" d="M88.11,282.56a1.6,1.6,0,0,1,1.6,1.61V300a1.79,1.79,0,0,1,0,.24,16.59,16.59,0,0,1-3.18-.64V284.17A1.61,1.61,0,0,1,88.11,282.56Z"/><path class="cls-3" d="M74.78,279.71a1.59,1.59,0,0,1-1.6-1.6v-64a1.6,1.6,0,1,1,3.2,0v64A1.6,1.6,0,0,1,74.78,279.71Z"/><path class="cls-3" d="M41.55,272.37a1.6,1.6,0,0,1-1.6-1.6V242.36a1.6,1.6,0,1,1,3.2,0v28.41A1.6,1.6,0,0,1,41.55,272.37Z"/><path class="cls-3" d="M108,272.37a1.6,1.6,0,0,1-1.6-1.6V242.36a1.6,1.6,0,1,1,3.2,0v28.41A1.6,1.6,0,0,1,108,272.37Z"/><path class="cls-2" d="M81.74,77.21H72.55V93.3a1.91,1.91,0,0,0,1.78-.77l9-12.3A1.9,1.9,0,0,0,81.74,77.21Z"/><path class="cls-2" d="M61.81,80.23l9,12.3a1.92,1.92,0,0,0,1.78.77V77.21h-9.2A1.9,1.9,0,0,0,61.81,80.23Z"/><path class="cls-2" d="M15.36,98a1.28,1.28,0,0,1-.08-2.56l25-1.65a1.28,1.28,0,0,1,.17,2.56L15.44,98Z"/><path class="cls-2" d="M19.18,110.53A1.28,1.28,0,0,1,18,109.6a1.27,1.27,0,0,1,.87-1.58l23.11-6.7a1.28,1.28,0,0,1,.71,2.46l-23.11,6.69A1.12,1.12,0,0,1,19.18,110.53Z"/><path class="cls-2" d="M130,98h-.09l-25-1.65a1.28,1.28,0,1,1,.17-2.56l25,1.65A1.28,1.28,0,0,1,130,98Z"/><path class="cls-2" d="M126.19,110.53a1,1,0,0,1-.35-.06l-23.11-6.69a1.28,1.28,0,1,1,.71-2.46l23.11,6.7a1.27,1.27,0,0,1,.87,1.58A1.28,1.28,0,0,1,126.19,110.53Z"/></g></g></svg>