<svg xmlns="http://www.w3.org/2000/svg" viewBox="0 0 627.8 232.97"><defs><style>.cls-1{fill:#cde3ee;}</style></defs><title>fishy</title><g id="Layer_2" data-name="Layer 2"><g id="Layer_1-2" data-name="Layer 1"><path class="cls-1" d="M605.53,142.22a72.92,72.92,0,0,1,0-51.46l21.26-56.38c4-12.22-3.81-19.66-25.21-13L459.06,62.55C410.28-7,267.6,0,259.61.4l-.72,0C135.9.57,38.07,76.27,5.05,105.32a14.87,14.87,0,0,0,0,22.33c28.61,25.17,105.88,85.35,206,101.08a5.9,5.9,0,0,1,1.59-1.6c8.7-6,13.85-13.06,15.29-21.12,2.43-13.59-6.25-26-6.34-26.15a6,6,0,0,1,1.5-8.44c11.89-8.13,17.19-19.13,15.74-32.68a52.84,52.84,0,0,0-6.22-19.33,6,6,0,0,1,10.27-6.21A64.71,64.71,0,0,1,250.71,137c1.35,11.68-.59,27.83-16.34,40.93,3.23,6.23,7.59,17.51,5.4,30.05-1.51,8.58-5.76,16.23-12.67,22.85a306.55,306.55,0,0,0,30.73,1.7,6.17,6.17,0,0,1,.57-.44c8.7-6,13.85-13.06,15.29-21.12,2.43-13.59-6.25-26-6.34-26.15a6,6,0,0,1,1.5-8.44c11.89-8.13,17.19-19.13,15.74-32.68a53.24,53.24,0,0,0-6.22-19.34,6,6,0,0,1,10.26-6.21A64.59,64.59,0,0,1,296.47,142c1.35,11.68-.59,27.83-16.35,40.92,3.24,6.24,7.6,17.52,5.4,30.06a40.09,40.09,0,0,1-9.93,20c40.17.1,143.43-5.42,183.47-62.55l142.52,41.14c21.4,6.69,29.21-.75,25.21-13ZM168.39,115.28a7.25,7.25,0,0,1-10.25,10.25l-19.65-19.66-19.65,19.66a7.25,7.25,0,0,1-10.25-10.25l19.65-19.65L108.59,76a7.25,7.25,0,0,1,10.25-10.25l19.65,19.66,19.65-19.66A7.25,7.25,0,0,1,168.39,76L148.74,95.63ZM581,163.74a5,5,0,0,1-4.9,4,4.47,4.47,0,0,1-1-.1L470.16,147.25a5,5,0,0,1,1.91-9.81L577,157.88A5,5,0,0,1,581,163.74ZM467.23,117.49a5,5,0,0,1,5-5H561a5,5,0,0,1,0,10H472.23A5,5,0,0,1,467.23,117.49ZM577,77.09,472.07,97.53a4.47,4.47,0,0,1-1,.1,5,5,0,0,1-.95-9.91L575.09,67.28A5,5,0,1,1,577,77.09Z"/></g></g></svg>