<svg xmlns="http://www.w3.org/2000/svg" viewBox="0 0 758.05 440.92"><defs><style>.cls-1{fill:#ffd15e;}.cls-2{fill:#f7a69b;}.cls-3{fill:#f8a79b;}.cls-4{fill:#82b6e4;}</style></defs><title>petbowlempty</title><g id="Layer_2" data-name="Layer 2"><g id="Layer_1-2" data-name="Layer 1"><path class="cls-1" d="M366.43,18.72a125,125,0,0,0-131.36-.15S91.89,40.32,118.68,105.28c0,0,21.39,43.68,68.36-10.37-.17,2.3-.27,4.61-.27,6.94,0,41.7,28,77.54,68.13,93.29l-10.44,77.37c-24.3,6-42.57,32.05-42.57,63.23,0,34.2,22,62.17,49.77,64.4V415a26,26,0,0,0,14.73,23.4V411.16a2.5,2.5,0,1,1,5,0v28.25a2.47,2.47,0,0,1-.12.72,25.57,25.57,0,0,0,6.35.79h0a26,26,0,0,0,2.66-.14,2.21,2.21,0,0,1,0-.37V415.63a2.5,2.5,0,0,1,5,0v24.15A26,26,0,0,0,303.57,415a26,26,0,0,0,18.33,24.81V415.63a2.5,2.5,0,0,1,5,0v24.78a2.21,2.21,0,0,1,0,.37,26,26,0,0,0,2.66.14h0a25.57,25.57,0,0,0,6.35-.79,2.47,2.47,0,0,1-.12-.72V411.16a2.5,2.5,0,0,1,5,0v27.21A26,26,0,0,0,355.48,415V399.68c26-4.32,46-31.29,46-63.94,0-30.94-18-56.79-42-63.08L346.82,195c39.87-15.84,67.67-51.57,67.67-93.11q0-3.06-.21-6.07c46.44,52.7,67.6,9.5,67.6,9.5C507.4,43.42,378.74,20.74,366.43,18.72Z"/><circle class="cls-2" cx="299.81" cy="98.09" r="23.44"/><circle class="cls-2" cx="239.53" cy="98.09" r="10.6"/><circle class="cls-2" cx="361.73" cy="98.09" r="10.6"/><path class="cls-2" d="M283.54,133.9a29.43,29.43,0,0,1-13.46-3.68,2.5,2.5,0,0,1,2.31-4.44c5.91,3.07,11.25,3.87,15.87,2.4a17.37,17.37,0,0,0,9.32-7.78,2.5,2.5,0,0,1,4.47,2.26,22.31,22.31,0,0,1-12.19,10.26A20.57,20.57,0,0,1,283.54,133.9Z"/><path class="cls-2" d="M316.9,133.9a20.62,20.62,0,0,1-6.32-1,22.22,22.22,0,0,1-12.18-10.26,2.5,2.5,0,0,1,4.46-2.26,17.41,17.41,0,0,0,9.32,7.78c4.62,1.47,10,.67,15.88-2.4a2.5,2.5,0,0,1,2.3,4.44A29.4,29.4,0,0,1,316.9,133.9Z"/><path class="cls-3" d="M271.39,411.16a2.5,2.5,0,1,0-5,0v27.21a25.31,25.31,0,0,0,4.88,1.76,2.47,2.47,0,0,0,.12-.72Z"/><path class="cls-3" d="M282.74,413.13a2.5,2.5,0,0,0-2.5,2.5v24.78a2.21,2.21,0,0,0,0,.37,25.35,25.35,0,0,0,5-1V415.63A2.5,2.5,0,0,0,282.74,413.13Z"/><path class="cls-3" d="M335.75,411.16a2.5,2.5,0,0,1,5,0v27.21a25.31,25.31,0,0,1-4.88,1.76,2.47,2.47,0,0,1-.12-.72Z"/><path class="cls-3" d="M324.4,413.13a2.5,2.5,0,0,1,2.5,2.5v24.78a2.21,2.21,0,0,1,0,.37,25.35,25.35,0,0,1-5-1V415.63A2.5,2.5,0,0,1,324.4,413.13Z"/><path class="cls-3" d="M303.57,408.67a2.5,2.5,0,0,1-2.5-2.5V306.23a2.5,2.5,0,0,1,5,0v99.94A2.5,2.5,0,0,1,303.57,408.67Z"/><path class="cls-3" d="M251.66,397.2a2.5,2.5,0,0,1-2.5-2.5V350.32a2.5,2.5,0,0,1,5,0V394.7A2.5,2.5,0,0,1,251.66,397.2Z"/><path class="cls-3" d="M355.48,397.2a2.5,2.5,0,0,1-2.5-2.5V350.32a2.5,2.5,0,1,1,5,0V394.7A2.5,2.5,0,0,1,355.48,397.2Z"/><path class="cls-1" d="M523.61,343.19s2-6.66,2.09-7A104.34,104.34,0,0,1,533.46,319c3.59-6.32,8.59-11.69,11.8-18.21,3.5-7.12,3.8-14.39,5.17-22a12.47,12.47,0,0,1,2.13-5.6,5.34,5.34,0,0,1,5.29-2.15c4.36,1.14,5.49,7,5.45,10.75-.12,13.15-7.95,27.23-15.41,37.74,0,0-10,14.08-10.79,24.77Z"/><path class="cls-1" d="M534.13,333.06,526,283.34c25.45-10.2,43.19-33.1,43.19-59.73a60,60,0,0,0-10-33.1L561,144.7a4.11,4.11,0,0,0-6.32-3.62l-33,21.21a80.85,80.85,0,0,0-50.87.09l-33.13-21.3a4.11,4.11,0,0,0-6.33,3.62L433.24,191l.05,0a60,60,0,0,0-9.73,32.62c0,26.78,17.94,49.79,43.61,59.9L460.5,333c-15.56,3.86-27.26,20.52-27.26,40.48,0,21.9,14.07,39.81,31.87,41.23v9.49a16.63,16.63,0,0,0,9.42,15V421.73a1.61,1.61,0,0,1,3.21,0v18.08a1.78,1.78,0,0,1-.08.47,17,17,0,0,0,4.06.5h0a16,16,0,0,0,1.71-.09,1.79,1.79,0,0,1,0-.24V424.59a1.6,1.6,0,0,1,3.2,0v15.46a16.63,16.63,0,0,0,11.73-15.89,16.63,16.63,0,0,0,11.73,15.89V424.59a1.6,1.6,0,1,1,3.2,0v15.86a1.79,1.79,0,0,1,0,.24,16,16,0,0,0,1.71.09,17,17,0,0,0,4.06-.5,1.78,1.78,0,0,1-.08-.47V421.73a1.61,1.61,0,0,1,3.21,0v17.42a16.63,16.63,0,0,0,9.42-15v-9.79c16.64-2.76,29.46-20,29.46-40.93C561,353.63,549.51,337.08,534.13,333.06Z"/><circle class="cls-2" cx="457.34" cy="221.29" r="6.79"/><circle class="cls-2" cx="535.57" cy="221.29" r="6.79"/><path class="cls-2" d="M485.52,241.6a18.82,18.82,0,0,1-8.62-2.36,1.6,1.6,0,0,1,1.47-2.84c3.79,2,7.21,2.48,10.17,1.54a11.16,11.16,0,0,0,6-5,1.6,1.6,0,0,1,2.85,1.44,14.14,14.14,0,0,1-7.8,6.57A13,13,0,0,1,485.52,241.6Z"/><path class="cls-2" d="M506.87,241.6a13.07,13.07,0,0,1-4-.63,14.19,14.19,0,0,1-7.8-6.57,1.6,1.6,0,0,1,2.86-1.44,11.14,11.14,0,0,0,6,5c3,.94,6.38.42,10.17-1.54a1.6,1.6,0,0,1,1.47,2.84A18.82,18.82,0,0,1,506.87,241.6Z"/><path class="cls-3" d="M477.74,421.73a1.61,1.61,0,0,0-3.21,0v17.42a17.4,17.4,0,0,0,3.13,1.13,1.78,1.78,0,0,0,.08-.47Z"/><path class="cls-3" d="M485,423a1.59,1.59,0,0,0-1.6,1.6v15.86a1.79,1.79,0,0,0,0,.24,16.75,16.75,0,0,0,3.18-.64V424.59A1.6,1.6,0,0,0,485,423Z"/><path class="cls-3" d="M518.94,421.73a1.61,1.61,0,0,1,3.21,0v17.42a17.68,17.68,0,0,1-3.13,1.13,1.78,1.78,0,0,1-.08-.47Z"/><path class="cls-3" d="M511.67,423a1.59,1.59,0,0,1,1.6,1.6v15.86a1.79,1.79,0,0,1,0,.24,16.75,16.75,0,0,1-3.18-.64V424.59A1.6,1.6,0,0,1,511.67,423Z"/><path class="cls-3" d="M498.34,420.13a1.6,1.6,0,0,1-1.6-1.6v-64a1.6,1.6,0,0,1,3.2,0v64A1.6,1.6,0,0,1,498.34,420.13Z"/><path class="cls-3" d="M465.11,412.79a1.6,1.6,0,0,1-1.6-1.6V382.78a1.6,1.6,0,1,1,3.2,0v28.41A1.6,1.6,0,0,1,465.11,412.79Z"/><path class="cls-3" d="M531.57,412.79a1.6,1.6,0,0,1-1.6-1.6V382.78a1.6,1.6,0,1,1,3.2,0v28.41A1.6,1.6,0,0,1,531.57,412.79Z"/><path class="cls-2" d="M505.31,217.63h-9.2v16.09a1.91,1.91,0,0,0,1.78-.77l8.95-12.3A1.9,1.9,0,0,0,505.31,217.63Z"/><path class="cls-2" d="M485.37,220.65l8.95,12.3a1.93,1.93,0,0,0,1.79.77V217.63h-9.2A1.9,1.9,0,0,0,485.37,220.65Z"/><path class="cls-2" d="M438.92,238.46a1.28,1.28,0,0,1-.08-2.56l25-1.65a1.28,1.28,0,1,1,.17,2.56l-25,1.65Z"/><path class="cls-2" d="M442.74,251a1.28,1.28,0,0,1-1.23-.93,1.27,1.27,0,0,1,.87-1.58l23.11-6.7a1.28,1.28,0,1,1,.71,2.46l-23.1,6.7A1.49,1.49,0,0,1,442.74,251Z"/><path class="cls-2" d="M553.57,238.46h-.08l-25-1.65a1.28,1.28,0,0,1,.17-2.56l25,1.65a1.28,1.28,0,0,1-.08,2.56Z"/><path class="cls-2" d="M549.75,251a1.48,1.48,0,0,1-.35,0l-23.11-6.7a1.28,1.28,0,0,1,.71-2.46l23.11,6.7A1.27,1.27,0,0,1,551,250,1.28,1.28,0,0,1,549.75,251Z"/><path class="cls-4" d="M146.54,351.68a8.46,8.46,0,0,0-9.52-5.39c-27.13,5.23-55,5.23-55,5.23s-27.89,0-55-5.23a8.46,8.46,0,0,0-9.52,5.39l-16.93,46a8.45,8.45,0,0,0,5,10.87c11,4,34.43,10,76.46,10s65.51-6,76.46-10a8.44,8.44,0,0,0,5-10.87Z"/><path class="cls-4" d="M740.58,351.68a8.45,8.45,0,0,0-9.51-5.39c-27.13,5.23-55,5.23-55,5.23s-27.9,0-55-5.23a8.45,8.45,0,0,0-9.51,5.39l-16.94,46a8.45,8.45,0,0,0,5,10.87c10.94,4,34.43,10,76.46,10s65.51-6,76.45-10a8.45,8.45,0,0,0,5-10.87Z"/></g></g></svg>