<svg xmlns="http://www.w3.org/2000/svg" viewBox="0 0 453.88 440.92"><defs><style>.cls-1{fill:#ffd15e;}.cls-2{fill:#f7a69b;}.cls-3{fill:#f8a79b;}</style></defs><title>pets-open</title><g id="Layer_2" data-name="Layer 2"><g id="Layer_1-2" data-name="Layer 1"><path class="cls-1" d="M251.09,18.72a125,125,0,0,0-131.35-.15S-23.45,40.32,3.34,105.28c0,0,21.39,43.68,68.36-10.37-.17,2.3-.27,4.61-.27,6.94,0,41.7,28,77.54,68.13,93.29l-10.44,77.37c-24.29,6-42.57,32.05-42.57,63.23,0,34.2,22,62.17,49.78,64.4V415a26,26,0,0,0,14.72,23.4V411.16a2.5,2.5,0,0,1,5,0v28.25a2.47,2.47,0,0,1-.12.72,25.57,25.57,0,0,0,6.35.79h0a25.88,25.88,0,0,0,2.66-.14c0-.12,0-.24,0-.37V415.63a2.5,2.5,0,0,1,5,0v24.15A26,26,0,0,0,188.23,415a26,26,0,0,0,18.33,24.81V415.63a2.5,2.5,0,0,1,5,0v24.78a2.21,2.21,0,0,1,0,.37,26.22,26.22,0,0,0,2.67.14h0a25.63,25.63,0,0,0,6.35-.79,2.47,2.47,0,0,1-.12-.72V411.16a2.5,2.5,0,0,1,5,0v27.21A26,26,0,0,0,240.14,415V399.68c26-4.32,46-31.29,46-63.94,0-30.94-18-56.79-42-63.08L231.48,195c39.87-15.84,67.67-51.57,67.67-93.11q0-3.06-.2-6.07c46.44,52.7,67.6,9.5,67.6,9.5C392.06,43.42,263.4,20.74,251.09,18.72Z"/><circle class="cls-2" cx="184.48" cy="98.09" r="23.44"/><circle class="cls-2" cx="124.2" cy="98.09" r="10.6"/><circle class="cls-2" cx="246.39" cy="98.09" r="10.6"/><path class="cls-2" d="M168.21,133.9a29.4,29.4,0,0,1-13.46-3.68,2.5,2.5,0,0,1,2.3-4.44c5.91,3.07,11.25,3.87,15.88,2.4a17.42,17.42,0,0,0,9.32-7.78,2.5,2.5,0,0,1,4.46,2.26,22.27,22.27,0,0,1-12.18,10.26A20.62,20.62,0,0,1,168.21,133.9Z"/><path class="cls-2" d="M201.56,133.9a20.62,20.62,0,0,1-6.32-1,22.22,22.22,0,0,1-12.18-10.26,2.5,2.5,0,0,1,4.46-2.26,17.41,17.41,0,0,0,9.32,7.78c4.62,1.47,10,.67,15.88-2.4a2.5,2.5,0,1,1,2.3,4.44A29.4,29.4,0,0,1,201.56,133.9Z"/><path class="cls-3" d="M156.05,411.16a2.5,2.5,0,0,0-5,0v27.21a25.56,25.56,0,0,0,4.88,1.76,2.47,2.47,0,0,0,.12-.72Z"/><path class="cls-3" d="M167.41,413.13a2.5,2.5,0,0,0-2.5,2.5v24.78c0,.13,0,.25,0,.37a25.6,25.6,0,0,0,5-1V415.63A2.5,2.5,0,0,0,167.41,413.13Z"/><path class="cls-3" d="M220.42,411.16a2.5,2.5,0,0,1,5,0v27.21a25.56,25.56,0,0,1-4.88,1.76,2.47,2.47,0,0,1-.12-.72Z"/><path class="cls-3" d="M209.06,413.13a2.5,2.5,0,0,1,2.5,2.5v24.78a2.21,2.21,0,0,1,0,.37,25.35,25.35,0,0,1-5-1V415.63A2.5,2.5,0,0,1,209.06,413.13Z"/><path class="cls-3" d="M188.23,408.67a2.5,2.5,0,0,1-2.5-2.5V306.23a2.5,2.5,0,0,1,5,0v99.94A2.5,2.5,0,0,1,188.23,408.67Z"/><path class="cls-3" d="M136.33,397.2a2.5,2.5,0,0,1-2.5-2.5V350.32a2.5,2.5,0,0,1,5,0V394.7A2.5,2.5,0,0,1,136.33,397.2Z"/><path class="cls-3" d="M240.14,397.2a2.5,2.5,0,0,1-2.5-2.5V350.32a2.5,2.5,0,0,1,5,0V394.7A2.5,2.5,0,0,1,240.14,397.2Z"/><path class="cls-1" d="M408.27,343.19c.05,0,2-6.66,2.1-7A102.69,102.69,0,0,1,418.13,319c3.58-6.32,8.59-11.69,11.79-18.21,3.5-7.12,3.8-14.39,5.17-22a12.58,12.58,0,0,1,2.13-5.6,5.34,5.34,0,0,1,5.29-2.15c4.37,1.14,5.49,7,5.46,10.75-.13,13.15-8,27.23-15.41,37.74,0,0-10,14.08-10.8,24.77Z"/><path class="cls-1" d="M418.8,333.06l-8.1-49.72c25.44-10.2,43.18-33.1,43.18-59.73a60,60,0,0,0-10-33.1l1.84-45.81a4.1,4.1,0,0,0-6.32-3.62l-33,21.21a80.85,80.85,0,0,0-50.87.09l-33.13-21.3a4.1,4.1,0,0,0-6.32,3.62L317.91,191l0,0a60.06,60.06,0,0,0-9.72,32.62c0,26.78,17.93,49.79,43.6,59.9L345.16,333c-15.56,3.86-27.25,20.52-27.25,40.48,0,21.9,14.07,39.81,31.86,41.23v9.49a16.62,16.62,0,0,0,9.43,15V421.73a1.6,1.6,0,1,1,3.2,0v18.08a1.45,1.45,0,0,1-.08.47,17,17,0,0,0,4.07.5h0a16,16,0,0,0,1.7-.09,1.79,1.79,0,0,1,0-.24V424.59a1.6,1.6,0,0,1,3.2,0v15.46A16.63,16.63,0,0,0,383,424.16a16.63,16.63,0,0,0,11.74,15.89V424.59a1.6,1.6,0,0,1,3.2,0v15.86a1.75,1.75,0,0,1,0,.24,16,16,0,0,0,1.71.09,17,17,0,0,0,4.06-.5,1.78,1.78,0,0,1-.07-.47V421.73a1.6,1.6,0,0,1,3.2,0v17.42a16.63,16.63,0,0,0,9.42-15v-9.79c16.65-2.76,29.47-20,29.47-40.93C445.7,353.63,434.17,337.08,418.8,333.06Z"/><circle class="cls-2" cx="342.01" cy="221.29" r="6.79"/><circle class="cls-2" cx="420.24" cy="221.29" r="6.79"/><path class="cls-2" d="M370.18,241.6a18.86,18.86,0,0,1-8.62-2.36A1.6,1.6,0,1,1,363,236.4c3.78,2,7.2,2.48,10.16,1.54a11.16,11.16,0,0,0,6-5A1.6,1.6,0,0,1,382,234.4a14.23,14.23,0,0,1-7.8,6.57A13.09,13.09,0,0,1,370.18,241.6Z"/><path class="cls-2" d="M391.54,241.6a13.09,13.09,0,0,1-4.05-.63,14.23,14.23,0,0,1-7.8-6.57,1.6,1.6,0,1,1,2.86-1.44,11.13,11.13,0,0,0,6,5c3,.94,6.37.42,10.16-1.54a1.6,1.6,0,1,1,1.47,2.84A18.79,18.79,0,0,1,391.54,241.6Z"/><path class="cls-3" d="M362.4,421.73a1.6,1.6,0,1,0-3.2,0v17.42a17.3,17.3,0,0,0,3.12,1.13,1.45,1.45,0,0,0,.08-.47Z"/><path class="cls-3" d="M369.67,423a1.59,1.59,0,0,0-1.6,1.6v15.86a1.79,1.79,0,0,0,0,.24,16.59,16.59,0,0,0,3.18-.64V424.59A1.6,1.6,0,0,0,369.67,423Z"/><path class="cls-3" d="M403.61,421.73a1.6,1.6,0,0,1,3.2,0v17.42a17.4,17.4,0,0,1-3.13,1.13,1.78,1.78,0,0,1-.07-.47Z"/><path class="cls-3" d="M396.34,423a1.6,1.6,0,0,1,1.6,1.6v15.86a1.75,1.75,0,0,1,0,.24,16.65,16.65,0,0,1-3.17-.64V424.59A1.59,1.59,0,0,1,396.34,423Z"/><path class="cls-3" d="M383,420.13a1.6,1.6,0,0,1-1.6-1.6v-64a1.6,1.6,0,1,1,3.2,0v64A1.59,1.59,0,0,1,383,420.13Z"/><path class="cls-3" d="M349.77,412.79a1.6,1.6,0,0,1-1.6-1.6V382.78a1.6,1.6,0,0,1,3.2,0v28.41A1.6,1.6,0,0,1,349.77,412.79Z"/><path class="cls-3" d="M416.23,412.79a1.6,1.6,0,0,1-1.6-1.6V382.78a1.61,1.61,0,0,1,3.21,0v28.41A1.61,1.61,0,0,1,416.23,412.79Z"/><path class="cls-2" d="M390,217.63h-9.2v16.09a1.93,1.93,0,0,0,1.79-.77l8.95-12.3A1.91,1.91,0,0,0,390,217.63Z"/><path class="cls-2" d="M370,220.65,379,233a1.91,1.91,0,0,0,1.78.77V217.63h-9.2A1.9,1.9,0,0,0,370,220.65Z"/><path class="cls-2" d="M323.58,238.46a1.28,1.28,0,0,1-.08-2.56l25-1.65a1.28,1.28,0,0,1,.17,2.56l-25,1.65Z"/><path class="cls-2" d="M327.4,251a1.28,1.28,0,0,1-.35-2.51l23.1-6.7a1.28,1.28,0,0,1,.72,2.46l-23.11,6.7A1.49,1.49,0,0,1,327.4,251Z"/><path class="cls-2" d="M438.23,238.46h-.08l-25-1.65a1.28,1.28,0,0,1,.17-2.56l25,1.65a1.28,1.28,0,0,1-.09,2.56Z"/><path class="cls-2" d="M434.42,251a1.49,1.49,0,0,1-.36,0L411,244.2a1.28,1.28,0,0,1-.87-1.59,1.3,1.3,0,0,1,1.59-.87l23.1,6.7a1.28,1.28,0,0,1,.88,1.58A1.3,1.3,0,0,1,434.42,251Z"/></g></g></svg>