<svg xmlns="http://www.w3.org/2000/svg" viewBox="0 0 369.89 440.92"><defs><style>.cls-1{fill:#ffd15e;}.cls-2{fill:#e5352c;}.cls-3{fill:#f7a69b;}.cls-4{fill:#f8a79b;}</style></defs><title>puppy-closed</title><g id="Layer_2" data-name="Layer 2"><g id="Layer_1-2" data-name="Layer 1"><path class="cls-1" d="M251.09,18.72a125,125,0,0,0-131.35-.15S-23.45,40.32,3.34,105.28c0,0,21.39,43.68,68.36-10.37-.17,2.3-.27,4.61-.27,6.94,0,41.7,28,77.54,68.13,93.29l-10.44,77.37c-24.29,6-42.57,32.05-42.57,63.23,0,34.2,22,62.17,49.78,64.4V415a26,26,0,0,0,14.72,23.4V411.16a2.5,2.5,0,0,1,5,0v28.25a2.47,2.47,0,0,1-.12.72,25.57,25.57,0,0,0,6.35.79h0a25.88,25.88,0,0,0,2.66-.14c0-.12,0-.24,0-.37V415.63a2.5,2.5,0,0,1,5,0v24.15A26,26,0,0,0,188.23,415a26,26,0,0,0,18.33,24.81V415.63a2.5,2.5,0,0,1,5,0v24.78a2.21,2.21,0,0,1,0,.37,26.22,26.22,0,0,0,2.67.14h0a25.63,25.63,0,0,0,6.35-.79,2.47,2.47,0,0,1-.12-.72V411.16a2.5,2.5,0,0,1,5,0v27.21A26,26,0,0,0,240.14,415V399.68c26-4.32,46-31.29,46-63.94,0-30.94-18-56.79-42-63.08L231.48,195c39.87-15.84,67.67-51.57,67.67-93.11q0-3.06-.2-6.07c46.44,52.7,67.6,9.5,67.6,9.5C392.06,43.42,263.4,20.74,251.09,18.72Z"/><rect class="cls-2" x="175.37" y="124.14" width="19.97" height="28.58" rx="9.99"/><circle class="cls-3" cx="184.48" cy="98.09" r="23.44"/><path class="cls-3" d="M168.21,133.9a29.4,29.4,0,0,1-13.46-3.68,2.5,2.5,0,0,1,2.3-4.44c5.91,3.07,11.25,3.87,15.88,2.4a17.42,17.42,0,0,0,9.32-7.78,2.5,2.5,0,0,1,4.46,2.26,22.27,22.27,0,0,1-12.18,10.26A20.62,20.62,0,0,1,168.21,133.9Z"/><path class="cls-3" d="M201.56,133.9a20.62,20.62,0,0,1-6.32-1,22.22,22.22,0,0,1-12.18-10.26,2.5,2.5,0,0,1,4.46-2.26,17.41,17.41,0,0,0,9.32,7.78c4.62,1.47,10,.67,15.88-2.4a2.5,2.5,0,1,1,2.3,4.44A29.4,29.4,0,0,1,201.56,133.9Z"/><path class="cls-4" d="M156.05,411.16a2.5,2.5,0,0,0-5,0v27.21a25.56,25.56,0,0,0,4.88,1.76,2.47,2.47,0,0,0,.12-.72Z"/><path class="cls-4" d="M167.41,413.13a2.5,2.5,0,0,0-2.5,2.5v24.78c0,.13,0,.25,0,.37a25.6,25.6,0,0,0,5-1V415.63A2.5,2.5,0,0,0,167.41,413.13Z"/><path class="cls-4" d="M220.42,411.16a2.5,2.5,0,0,1,5,0v27.21a25.56,25.56,0,0,1-4.88,1.76,2.47,2.47,0,0,1-.12-.72Z"/><path class="cls-4" d="M209.06,413.13a2.5,2.5,0,0,1,2.5,2.5v24.78a2.21,2.21,0,0,1,0,.37,25.35,25.35,0,0,1-5-1V415.63A2.5,2.5,0,0,1,209.06,413.13Z"/><path class="cls-4" d="M188.23,408.67a2.5,2.5,0,0,1-2.5-2.5V306.23a2.5,2.5,0,0,1,5,0v99.94A2.5,2.5,0,0,1,188.23,408.67Z"/><path class="cls-4" d="M136.33,397.2a2.5,2.5,0,0,1-2.5-2.5V350.32a2.5,2.5,0,0,1,5,0V394.7A2.5,2.5,0,0,1,136.33,397.2Z"/><path class="cls-4" d="M240.14,397.2a2.5,2.5,0,0,1-2.5-2.5V350.32a2.5,2.5,0,0,1,5,0V394.7A2.5,2.5,0,0,1,240.14,397.2Z"/><path class="cls-4" d="M124.24,111.2h-.62c-7.89-.31-13.19-6.4-13.41-6.66a2.5,2.5,0,0,1,3.79-3.25c.08.09,4.19,4.71,9.85,4.91,3.6.13,7.19-1.57,10.67-5a2.5,2.5,0,1,1,3.53,3.54C133.72,109,129.08,111.2,124.24,111.2Z"/><path class="cls-4" d="M246.43,111.2h-.62c-7.89-.31-13.19-6.4-13.41-6.66a2.5,2.5,0,1,1,3.79-3.25c.08.09,4.19,4.71,9.85,4.91,3.62.13,7.19-1.57,10.67-5a2.5,2.5,0,1,1,3.54,3.54C255.92,109,251.27,111.2,246.43,111.2Z"/></g></g></svg>